<svg width="24" height="24" viewBox="0 0 24 24" fill="none" xmlns="http://www.w3.org/2000/svg">
<path d="M19.8571 2H4.14286C2.95982 2 2 2.95982 2 4.14286V19.8571C2 21.0402 2.95982 22 4.14286 22H19.8571C21.0402 22 22 21.0402 22 19.8571V4.14286C22 2.95982 21.0402 2 19.8571 2ZM12.8839 17.5982C12.8839 19.5446 11.7411 20.433 10.0759 20.433C8.57143 20.433 7.70089 19.6562 7.25446 18.7143L8.78571 17.7902C9.08036 18.3125 9.34821 18.7545 9.99554 18.7545C10.6116 18.7545 11.0045 18.5134 11.0045 17.5714V11.183H12.8839V17.5982ZM17.3304 20.433C15.5848 20.433 14.4554 19.6027 13.9063 18.5134L15.4375 17.6295C15.8393 18.2857 16.3661 18.7723 17.2902 18.7723C18.067 18.7723 18.567 18.3839 18.567 17.8438C18.567 17.2009 18.058 16.9732 17.1964 16.5938L16.7277 16.3929C15.3705 15.817 14.4732 15.0893 14.4732 13.558C14.4732 12.1473 15.5491 11.0759 17.2232 11.0759C18.4196 11.0759 19.2768 11.4911 19.8929 12.5804L18.4286 13.5179C18.1071 12.942 17.7589 12.7143 17.2188 12.7143C16.6696 12.7143 16.3214 13.0625 16.3214 13.5179C16.3214 14.0804 16.6696 14.308 17.4777 14.6607L17.9464 14.8616C19.5446 15.5446 20.442 16.2455 20.442 17.817C20.442 19.5045 19.1116 20.433 17.3304 20.433Z" fill="white"/>
</svg>
