<svg width="24" height="24" viewBox="0 0 24 24" fill="none" xmlns="http://www.w3.org/2000/svg">
<path d="M22 4.78076C19.475 6.45576 19.2062 7.67139 18.9875 8.04326C18.7781 8.42451 18.6219 9.92764 18.2594 10.6558C17.8937 11.3933 16.5656 11.9745 16.1938 12.2183C15.8281 12.462 15.3094 13.4089 14.8844 14.2245C11.5062 14.087 9.65313 15.437 6.78438 17.1495C7.70312 16.8464 8.1375 16.6276 8.1375 16.6276C11.0812 15.5026 12.4906 14.4933 16.9219 15.0901C16.9563 15.0901 16.9812 15.1089 17.0094 15.1151C17.1312 15.1839 17.175 15.3308 17.1062 15.4526L15.4219 18.4464C15.3438 18.5933 15.1781 18.6714 15.0125 18.637C11.05 17.8933 7.92188 19.1776 5.04688 19.2183C2.75312 19.2526 2 18.1714 2 18.1214C2 18.087 2.01875 18.0683 2.05313 18.0683C2.05313 18.0683 3.25 18.0683 5.275 17.5901C7.575 13.2058 9.625 11.6714 11.8562 11.6714C11.8562 11.6714 14.0969 11.6714 14.6875 13.6058C15.4 12.3651 15.5719 12.0683 15.5719 12.0683C15.7375 11.7745 16.6656 9.65576 18.2719 7.64951C19.8813 5.64951 21.0969 5.15264 22 4.78076Z" fill="white"/>
</svg>
