<svg width="24" height="24" viewBox="0 0 24 24" fill="none" xmlns="http://www.w3.org/2000/svg">
<path d="M18.3359 8.9209C18.125 8.85059 17.9141 8.78418 17.7031 8.72168C17.7383 8.57715 17.7695 8.43262 17.8008 8.28809C18.2812 5.95996 17.9648 4.08887 16.8984 3.47168C15.8711 2.88184 14.1953 3.49512 12.5 4.97168C12.332 5.11621 12.168 5.26855 12.0117 5.4209C11.9062 5.31934 11.7969 5.21777 11.6875 5.12012C9.91016 3.54199 8.12891 2.87793 7.0625 3.49902C6.03906 4.09277 5.73438 5.85449 6.16406 8.05762C6.20703 8.27637 6.25391 8.49121 6.30859 8.70996C6.05859 8.78027 5.8125 8.8584 5.58203 8.94043C3.49609 9.66309 2 10.8037 2 11.9834C2 13.2021 3.59375 14.4248 5.76172 15.167C5.9375 15.2256 6.11328 15.2842 6.29297 15.335C6.23438 15.5693 6.18359 15.7998 6.13672 16.0381C5.72656 18.2061 6.04688 19.9248 7.07031 20.5146C8.125 21.124 9.89844 20.499 11.625 18.9873C11.7617 18.8662 11.8984 18.7412 12.0352 18.6084C12.207 18.7764 12.3867 18.9365 12.5664 19.0928C14.2383 20.5303 15.8906 21.1123 16.9102 20.5225C17.9648 19.9131 18.3086 18.0654 17.8633 15.8154C17.8281 15.6436 17.7891 15.4678 17.7461 15.2881C17.8711 15.2529 17.9922 15.2139 18.1133 15.1748C20.3672 14.4287 22 13.2217 22 11.9834C22 10.7998 20.4609 9.65137 18.3359 8.9209ZM13.0508 5.60449C14.5039 4.33887 15.8594 3.84277 16.4766 4.19824C17.1367 4.57715 17.3906 6.1084 16.9766 8.12012C16.9492 8.25293 16.9219 8.38184 16.8867 8.51074C16.0195 8.31543 15.1406 8.1748 14.2578 8.09668C13.75 7.37012 13.1953 6.6748 12.5938 6.02246C12.7461 5.87793 12.8945 5.74121 13.0508 5.60449ZM8.53125 14.0107C8.73047 14.3506 8.93359 14.6904 9.14844 15.0225C8.53906 14.9561 7.93359 14.8584 7.33594 14.7295C7.50781 14.167 7.72266 13.585 7.97266 12.9912C8.15234 13.335 8.33594 13.6748 8.53125 14.0107ZM7.34766 9.31152C7.91016 9.18652 8.50781 9.08496 9.12891 9.00683C8.92188 9.33105 8.71875 9.66309 8.52734 9.99902C8.33594 10.3311 8.14844 10.6709 7.97266 11.0146C7.72656 10.4326 7.51953 9.8623 7.34766 9.31152ZM8.41797 12.0029C8.67578 11.4639 8.95703 10.9365 9.25391 10.417C9.55078 9.89746 9.87109 9.39355 10.207 8.89746C10.793 8.85449 11.3906 8.83105 12 8.83105C12.6094 8.83105 13.2109 8.85449 13.793 8.89746C14.125 9.38965 14.4414 9.89355 14.7422 10.4092C15.043 10.9248 15.3242 11.4521 15.5898 11.9873C15.3281 12.5264 15.0469 13.0576 14.7461 13.5811C14.4492 14.1006 14.1328 14.6045 13.8008 15.1045C13.2188 15.1475 12.6133 15.167 12 15.167C11.3867 15.167 10.793 15.1475 10.2188 15.1123C9.87891 14.6162 9.55859 14.1084 9.25781 13.5889C8.95703 13.0693 8.67969 12.542 8.41797 12.0029ZM15.4727 14.0029C15.6719 13.6592 15.8594 13.3115 16.043 12.96C16.293 13.5264 16.5117 14.1006 16.7031 14.6904C16.0977 14.8271 15.4844 14.9326 14.8672 15.0029C15.0781 14.6748 15.2773 14.3389 15.4727 14.0029ZM16.0352 11.0146C15.8516 10.6709 15.6641 10.3271 15.4688 9.99121C15.2773 9.65918 15.0781 9.33105 14.8711 9.00683C15.5 9.08496 16.1016 9.19043 16.6641 9.31933C16.4844 9.89746 16.2734 10.46 16.0352 11.0146ZM12.0078 6.62012C12.418 7.06543 12.8047 7.53418 13.1641 8.01855C12.3906 7.9834 11.6133 7.9834 10.8398 8.01855C11.2227 7.51465 11.6172 7.0459 12.0078 6.62012ZM7.47656 4.22559C8.13281 3.84277 9.58984 4.38965 11.125 5.74902C11.2227 5.83496 11.3203 5.92871 11.4219 6.02246C10.8164 6.6748 10.2578 7.37012 9.74609 8.09668C8.86328 8.1748 7.98828 8.31152 7.12109 8.50293C7.07031 8.30371 7.02734 8.10059 6.98438 7.89746C6.61719 6.00684 6.85938 4.58105 7.47656 4.22559ZM6.51953 14.5225C6.35547 14.4756 6.19531 14.4248 6.03516 14.3701C5.20313 14.1084 4.25781 13.6943 3.57422 13.1514C3.17969 12.8779 2.91406 12.4561 2.83984 11.9834C2.83984 11.2686 4.07422 10.3545 5.85547 9.7334C6.07812 9.65527 6.30469 9.58496 6.53125 9.51855C6.79688 10.3662 7.11719 11.1982 7.48828 12.0029C7.11328 12.8193 6.78906 13.6631 6.51953 14.5225ZM11.0742 18.3506C10.4297 18.9404 9.68359 19.4092 8.87109 19.7295C8.4375 19.9365 7.9375 19.9561 7.49219 19.7803C6.87109 19.4209 6.61328 18.042 6.96484 16.1865C7.00781 15.9678 7.05469 15.749 7.10938 15.5342C7.98438 15.7217 8.86719 15.8506 9.76172 15.917C10.2773 16.6475 10.8438 17.3467 11.4492 18.0029C11.3242 18.124 11.1992 18.2412 11.0742 18.3506ZM12.0312 17.4014C11.6328 16.9717 11.2344 16.4951 10.8477 15.9834C11.2227 15.999 11.6094 16.0068 12 16.0068C12.4023 16.0068 12.7969 15.999 13.1875 15.9795C12.8281 16.4756 12.4414 16.9482 12.0312 17.4014ZM17.1367 18.5732C17.1016 19.0498 16.8672 19.4951 16.4922 19.7959C15.8711 20.1553 14.5469 19.6865 13.1172 18.46C12.9531 18.3193 12.7891 18.167 12.6211 18.0107C13.2188 17.3506 13.7695 16.6514 14.2695 15.917C15.1641 15.8428 16.0547 15.7061 16.9336 15.5068C16.9727 15.667 17.0078 15.8271 17.0391 15.9834C17.2305 16.8271 17.2617 17.7061 17.1367 18.5732ZM17.8477 14.374C17.7383 14.4092 17.6289 14.4443 17.5156 14.4756C17.2422 13.624 16.9062 12.792 16.5195 11.9834C16.8945 11.1865 17.2109 10.3662 17.4766 9.52637C17.6797 9.58496 17.875 9.64746 18.0625 9.70996C19.8828 10.335 21.1602 11.2646 21.1602 11.9756C21.1602 12.7412 19.7969 13.7295 17.8477 14.374ZM12 13.7881C12.9883 13.7881 13.7891 12.9873 13.7891 11.999C13.7891 11.0107 12.9883 10.21 12 10.21C11.0117 10.21 10.2109 11.0107 10.2109 11.999C10.2109 12.9873 11.0117 13.7881 12 13.7881Z" fill="white"/>
</svg>
