<svg width="24" height="24" viewBox="0 0 24 24" fill="none" xmlns="http://www.w3.org/2000/svg">
<path d="M11.4325 15.8405C11.4231 15.8593 11.4137 15.8743 11.4325 15.8405V15.8405ZM19.2179 13.1217C18.5894 13.1215 17.9692 13.2659 17.4054 13.5436C17.221 13.1717 17.0304 12.8467 16.9991 12.603C16.9616 12.3186 16.921 12.1498 16.9648 11.8123C17.0085 11.4748 17.2054 10.9967 17.2023 10.9623C17.1991 10.928 17.1585 10.7561 16.7554 10.753C16.3522 10.7498 16.0054 10.8311 15.9651 10.9373C15.8939 11.1315 15.8385 11.3311 15.7994 11.5342C15.7275 11.8998 14.9935 13.2061 14.5778 13.8874C14.4403 13.6217 14.3247 13.3874 14.2997 13.1999C14.2622 12.9155 14.2216 12.7467 14.2653 12.4092C14.3091 12.0717 14.506 11.5936 14.5028 11.5592C14.4997 11.5248 14.4591 11.353 14.0563 11.3498C13.6535 11.3467 13.3063 11.428 13.2656 11.5342C13.225 11.6405 13.1813 11.8905 13.1 12.1311C13.0188 12.3717 12.0409 14.5468 11.785 15.1124C11.6538 15.3999 11.5413 15.6311 11.46 15.7874C11.4475 15.8124 11.4381 15.828 11.4319 15.8405C11.4412 15.8249 11.4475 15.8093 11.4475 15.8155C11.3787 15.9499 11.3381 16.0249 11.3381 16.0249V16.028C11.285 16.128 11.2256 16.2186 11.1975 16.2186C11.1787 16.2186 11.1381 15.9561 11.2069 15.5968C11.3537 14.8405 11.7006 13.6655 11.6975 13.6249C11.6944 13.603 11.7631 13.3999 11.4694 13.2905C11.185 13.1874 11.0819 13.3592 11.0569 13.3592C11.0319 13.3592 11.0131 13.4217 11.0131 13.4217C11.0131 13.4217 11.3287 12.0967 10.4072 12.0967C9.83217 12.0967 9.03216 12.728 8.63903 13.2999C8.39215 13.4342 7.85777 13.7249 7.29526 14.0342C7.07964 14.153 6.85776 14.2749 6.64838 14.3905C6.63276 14.3749 6.62025 14.3593 6.60463 14.3436C5.48618 13.1499 3.42116 12.3061 3.50866 10.703C3.53991 10.1186 3.74303 8.58418 7.47964 6.72166C10.5422 5.19664 12.9906 5.6154 13.4122 6.54666C14.0185 7.8748 12.1031 10.3467 8.92278 10.703C7.71058 10.8373 7.07339 10.3686 6.91401 10.1936C6.74838 10.0092 6.72338 9.99982 6.66088 10.0342C6.55775 10.0905 6.62338 10.253 6.66088 10.3498C6.75463 10.5967 7.14526 11.0342 7.81058 11.253C8.39496 11.4436 9.81623 11.5498 11.5347 10.8842C13.4653 10.1405 14.9682 8.06855 14.5275 6.33416C14.0788 4.57164 11.1562 3.9935 8.39278 4.97477C6.74619 5.55915 4.96555 6.47791 3.6846 7.6748C2.16302 9.09981 1.91958 10.3405 2.01958 10.8592C2.37552 12.6999 4.91242 13.8999 5.92775 14.7874C5.87775 14.8155 5.83087 14.8405 5.78712 14.8655C5.27805 15.1186 3.34397 16.1311 2.8599 17.1999C2.31302 18.4124 2.95052 19.2812 3.36897 19.3999C4.67492 19.7624 6.01212 19.1093 6.73057 18.0374C7.44901 16.9655 7.36183 15.5655 7.03057 14.928C7.02745 14.9186 7.0212 14.9124 7.01807 14.903C7.14932 14.8249 7.2837 14.7468 7.41808 14.6686C7.67714 14.5155 7.93027 14.3749 8.15215 14.253C8.02715 14.5905 7.93652 14.9968 7.88964 15.5843C7.83339 16.2718 8.11777 17.1624 8.48653 17.5124C8.64903 17.6655 8.84559 17.6687 8.96747 17.6687C9.39873 17.6687 9.59248 17.3124 9.80779 16.8874C10.0734 16.3686 10.3078 15.7655 10.3078 15.7655C10.3078 15.7655 10.014 17.3968 10.8172 17.3968C11.1106 17.3968 11.4044 17.0187 11.5359 16.8249V16.828C11.5359 16.828 11.5422 16.8155 11.5578 16.7905C11.5891 16.7437 11.6047 16.7155 11.6047 16.7155V16.7062C11.7234 16.503 11.9828 16.0374 12.3731 15.2686C12.8794 14.2749 13.3635 13.0342 13.3635 13.0342C13.4102 13.307 13.475 13.5763 13.5572 13.8405C13.6447 14.1374 13.8291 14.4624 13.976 14.778C13.8572 14.9405 13.7853 15.0343 13.7853 15.0343C13.7856 15.0367 13.7867 15.0389 13.7885 15.0405C13.6947 15.1655 13.5885 15.2999 13.4791 15.4311C13.0794 15.9061 12.6041 16.4499 12.5416 16.6062C12.4666 16.7905 12.4853 16.928 12.6291 17.0343C12.7353 17.1155 12.9228 17.128 13.1194 17.1124C13.4788 17.0874 13.7319 16.9999 13.8538 16.9437C14.0785 16.8631 14.2908 16.7516 14.4847 16.6124C14.8754 16.3249 15.1129 15.9124 15.091 15.3686C15.0785 15.0686 14.9816 14.7686 14.8629 14.4874C14.8972 14.4374 14.9347 14.3843 14.9691 14.3311C15.5875 13.428 16.0657 12.4367 16.0657 12.4367C16.1125 12.7095 16.1772 12.9788 16.2594 13.243C16.3344 13.4961 16.481 13.7742 16.6154 14.0461C16.0344 14.518 15.675 15.0649 15.55 15.4243C15.3188 16.0899 15.5 16.3899 15.8407 16.4587C15.9938 16.4899 16.2126 16.418 16.3751 16.3493C16.6164 16.2689 16.8439 16.1519 17.0498 16.0024C17.4404 15.7149 17.8182 15.3118 17.7932 14.7649C17.7838 14.518 17.7151 14.2711 17.6244 14.0336C18.1151 13.8274 18.7523 13.7149 19.5648 13.8086C21.3048 14.0117 21.6454 15.0993 21.5798 15.5524C21.5142 16.0055 21.1486 16.2586 21.0267 16.3336C20.9048 16.4086 20.8673 16.4368 20.8767 16.493C20.8923 16.5743 20.9485 16.5712 21.0517 16.5524C21.1954 16.5274 21.9639 16.1836 21.9982 15.343C22.0482 14.2805 21.0267 13.1117 19.217 13.1211L19.2179 13.1217ZM5.80587 17.6437C5.23118 18.2718 4.42492 18.5093 4.07835 18.3093C3.70647 18.093 3.85335 17.1687 4.56242 16.4993C4.99367 16.093 5.54962 15.718 5.91837 15.4868C6.00275 15.4368 6.12462 15.3618 6.27463 15.2711C6.29963 15.2555 6.31213 15.2493 6.31213 15.2493C6.34025 15.2305 6.3715 15.2149 6.40275 15.1961C6.66182 16.1461 6.41213 16.9837 5.80587 17.643V17.6437ZM10.0047 14.7874C9.80467 15.278 9.3831 16.528 9.12685 16.4624C8.90809 16.4061 8.77372 15.453 9.0831 14.5155C9.23935 14.0436 9.5706 13.4811 9.76748 13.2624C10.0828 12.9092 10.4297 12.7967 10.5109 12.9374C10.6203 13.1217 10.1297 14.4811 10.0047 14.7874ZM13.4735 16.4436C13.3891 16.4874 13.311 16.5155 13.2735 16.4937C13.2453 16.478 13.3078 16.4186 13.3078 16.4186C13.3078 16.4186 13.7422 15.953 13.9141 15.7405C14.0141 15.6155 14.1297 15.4686 14.2544 15.3061C14.2544 15.3218 14.2575 15.3374 14.2575 15.3561C14.2535 15.9155 13.7163 16.2936 13.4725 16.4436H13.4735ZM16.1479 15.8343C16.0854 15.7905 16.0947 15.6436 16.3041 15.1874C16.3854 15.0093 16.5726 14.7093 16.8979 14.4218C16.9347 14.5306 16.9547 14.6444 16.9573 14.7593C16.9541 15.4624 16.451 15.7249 16.1482 15.8343H16.1479Z" fill="white"/>
</svg>
