<svg width="725" height="722" viewBox="0 0 725 722" fill="none" xmlns="http://www.w3.org/2000/svg">
<g filter="url(#filter0_d_22_3)">
<path d="M367.141 340.501L388.821 340.525C389.776 360.448 393.568 374.807 400.199 383.604C406.83 392.4 416.982 396.806 430.654 396.821C438.662 396.829 449.015 395.181 461.714 391.874C494.341 383.121 517.295 378.751 530.576 378.766C562.412 378.801 586.426 387.518 602.618 404.919C616.078 419.387 622.788 445.273 622.748 482.578L623.878 520.372L599.855 520.346C599.884 493.978 594.24 474.832 582.925 462.905C571.61 450.783 553.453 444.709 528.453 444.681C518.883 444.671 509.213 446.028 499.445 448.751L471.897 456.631C461.738 459.355 452.752 460.712 444.939 460.703C416.619 460.672 396.811 445.807 385.515 416.107C381.404 424.696 375.732 432.503 368.498 439.526C374.956 427.424 379.46 416.491 382.01 406.728C380.844 401.063 379.875 394.519 379.102 387.096L376.758 387.094C368.893 435.132 348.75 459.133 316.328 459.098C308.125 459.089 299.63 457.615 290.844 454.676L265.951 446.152C259.508 443.997 251.404 442.914 241.638 442.903C230.115 442.89 217.514 445.904 203.836 451.944C194.839 463.262 190.327 481.128 190.3 505.542L182.386 509.635C182.409 487.955 186.041 470.87 193.282 458.377C179.207 469.69 172.153 490.19 172.121 519.878L148.097 519.852C148.696 508.329 149.002 496.122 149.016 483.231C149.056 446.513 154.748 421.324 166.091 407.664C182.323 387.955 207.334 378.119 241.123 378.156C253.037 378.169 273.15 382.683 301.46 391.699C311.222 394.835 319.619 396.406 326.65 396.414C351.26 396.441 364.757 377.803 367.141 340.501ZM639.998 514.237L638.874 470.291C638.915 432.986 632.205 407.1 618.744 392.632C602.552 375.231 578.539 366.514 546.703 366.479C533.617 366.464 510.663 370.834 477.841 379.587C465.337 382.894 454.984 384.543 446.78 384.534C433.109 384.519 422.957 380.113 416.326 371.317C409.695 362.52 405.902 348.161 404.947 328.238L378.58 328.209L386.499 320.014L413.16 320.044C414.114 339.967 417.907 354.326 424.538 363.122C430.974 371.919 441.125 376.324 454.993 376.339C463.196 376.348 473.549 374.7 486.053 371.393C518.875 362.64 541.829 358.27 554.915 358.285C586.555 358.319 610.472 367.037 626.664 384.437C640.32 398.905 647.127 424.792 647.086 462.096L647.636 495.202L647.917 506.043L639.998 514.237ZM358.613 369.789C350.595 379.35 342.484 384.127 334.281 384.118C327.25 384.11 318.951 382.538 309.384 379.403C282.05 370.389 261.352 365.874 247.289 365.858C228.344 365.838 207.047 372.748 183.399 386.589C201.194 367.273 225.716 357.632 256.966 357.666C272.005 357.682 292.215 362.197 317.596 371.209C326.381 374.343 333.411 375.913 338.684 375.919C343.177 375.924 349.819 373.881 358.613 369.789Z" fill="#F7ED07"/>
</g>
<g filter="url(#filter1_d_22_3)">
<path d="M368.143 185.501L389.822 185.525C390.777 205.448 394.57 219.807 401.201 228.604C407.832 237.4 417.983 241.806 431.655 241.821C439.663 241.829 450.017 240.181 462.715 236.874C495.342 228.121 518.296 223.751 531.577 223.766C563.413 223.801 587.427 232.518 603.619 249.919C617.08 264.387 623.79 290.273 623.749 327.578L624.88 365.372L600.856 365.346C600.885 338.978 595.242 319.832 583.927 307.905C572.612 295.783 554.455 289.709 529.455 289.681C519.884 289.671 510.215 291.028 500.446 293.751L472.899 301.631C462.739 304.355 453.753 305.712 445.941 305.703C417.621 305.672 397.813 290.807 386.517 261.107C382.406 269.696 376.733 277.503 369.499 284.526C375.958 272.424 380.462 261.491 383.012 251.728C381.846 246.063 380.877 239.519 380.103 232.096L377.76 232.094C369.895 280.132 349.751 304.133 317.329 304.098C309.126 304.089 300.632 302.615 291.846 299.676L266.953 291.152C260.51 288.997 252.406 287.914 242.64 287.903C231.117 287.89 218.516 290.904 204.837 296.944C195.84 308.262 191.329 326.128 191.302 350.542L183.387 354.635C183.411 332.955 187.043 315.87 194.283 303.377C180.208 314.69 173.155 335.19 173.122 364.878L149.099 364.852C149.697 353.329 150.004 341.122 150.018 328.231C150.058 291.513 155.749 266.324 167.093 252.664C183.325 232.955 208.336 223.119 242.125 223.156C254.039 223.169 274.151 227.683 302.462 236.699C312.224 239.835 320.621 241.406 327.652 241.414C352.261 241.441 365.758 222.803 368.143 185.501ZM641 359.237L639.876 315.291C639.917 277.986 633.207 252.1 619.746 237.632C603.554 220.231 579.54 211.514 547.704 211.479C534.618 211.464 511.664 215.834 478.842 224.587C466.339 227.894 455.985 229.543 447.782 229.534C434.11 229.519 423.959 225.113 417.328 216.317C410.697 207.52 406.904 193.161 405.949 173.238L379.582 173.209L387.501 165.014L414.161 165.044C415.116 184.967 418.909 199.326 425.54 208.122C431.976 216.919 442.127 221.324 455.994 221.339C464.197 221.348 474.551 219.7 487.054 216.393C519.876 207.64 542.83 203.27 555.916 203.285C587.557 203.319 611.473 212.037 627.665 229.437C641.321 243.905 648.129 269.792 648.088 307.096L648.638 340.202L648.919 351.043L641 359.237ZM359.615 214.789C351.596 224.35 343.486 229.127 335.282 229.118C328.251 229.11 319.952 227.538 310.385 224.403C283.051 215.389 262.353 210.874 248.291 210.858C229.345 210.838 208.049 217.748 184.401 231.589C202.195 212.273 226.718 202.632 257.968 202.666C273.007 202.682 293.217 207.197 318.597 216.209C327.383 219.343 334.413 220.913 339.686 220.919C344.178 220.924 350.821 218.881 359.615 214.789Z" fill="#F7ED07"/>
</g>
<g filter="url(#filter2_d_22_3)">
<path d="M367.141 497.501L388.821 497.525C389.776 517.448 393.568 531.807 400.199 540.604C406.83 549.4 416.982 553.806 430.654 553.82C438.662 553.829 449.015 552.18 461.714 548.874C494.341 540.121 517.295 535.751 530.576 535.766C562.412 535.8 586.426 544.518 602.618 561.919C616.078 576.387 622.788 602.273 622.748 639.577L623.878 677.372L599.855 677.345C599.884 650.978 594.24 631.831 582.925 619.905C571.61 607.783 553.453 601.709 528.453 601.681C518.883 601.671 509.213 603.028 499.445 605.751L471.897 613.631C461.738 616.355 452.752 617.712 444.939 617.703C416.619 617.672 396.811 602.807 385.515 573.107C381.404 581.696 375.732 589.503 368.498 596.526C374.956 584.424 379.46 573.491 382.01 563.728C380.844 558.063 379.875 551.519 379.102 544.096L376.758 544.094C368.893 592.132 348.75 616.133 316.328 616.098C308.125 616.089 299.63 614.615 290.844 611.675L265.951 603.152C259.508 600.997 251.404 599.914 241.638 599.903C230.115 599.89 217.514 602.904 203.836 608.944C194.839 620.262 190.327 638.128 190.3 662.542L182.386 666.635C182.409 644.955 186.041 627.869 193.282 615.377C179.207 626.69 172.153 647.19 172.121 676.878L148.097 676.851C148.696 665.329 149.002 653.122 149.016 640.231C149.056 603.513 154.748 578.323 166.091 564.664C182.323 544.955 207.334 535.119 241.123 535.156C253.037 535.169 273.15 539.683 301.46 548.699C311.222 551.834 319.619 553.406 326.65 553.414C351.26 553.441 364.757 534.803 367.141 497.501ZM639.998 671.237L638.874 627.29C638.915 589.986 632.205 564.099 618.744 549.632C602.552 532.231 578.539 523.513 546.703 523.479C533.617 523.464 510.663 527.834 477.841 536.587C465.337 539.894 454.984 541.542 446.78 541.533C433.109 541.518 422.957 537.113 416.326 528.317C409.695 519.52 405.902 505.161 404.947 485.238L378.58 485.209L386.499 477.014L413.16 477.043C414.114 496.966 417.907 511.326 424.538 520.122C430.974 528.918 441.125 533.324 454.993 533.339C463.196 533.348 473.549 531.699 486.053 528.393C518.875 519.64 541.829 515.27 554.915 515.284C586.555 515.319 610.472 524.037 626.664 541.437C640.32 555.905 647.127 581.792 647.086 619.096L647.636 652.202L647.917 663.043L639.998 671.237ZM358.613 526.789C350.595 536.35 342.484 541.126 334.281 541.117C327.25 541.11 318.951 539.538 309.384 536.403C282.05 527.388 261.352 522.874 247.289 522.858C228.344 522.837 207.047 529.748 183.399 543.589C201.194 524.273 225.716 514.631 256.966 514.666C272.005 514.682 292.215 519.196 317.596 528.209C326.381 531.343 333.411 532.913 338.684 532.919C343.177 532.924 349.819 530.88 358.613 526.789Z" fill="#F7ED07"/>
</g>
<defs>
<filter id="filter0_d_22_3" x="144.097" y="319.754" width="508.023" height="208.644" filterUnits="userSpaceOnUse" color-interpolation-filters="sRGB">
<feFlood flood-opacity="0" result="BackgroundImageFix"/>
<feColorMatrix in="SourceAlpha" type="matrix" values="0 0 0 0 0 0 0 0 0 0 0 0 0 0 0 0 0 0 127 0" result="hardAlpha"/>
<feOffset dy="4"/>
<feGaussianBlur stdDeviation="2"/>
<feComposite in2="hardAlpha" operator="out"/>
<feColorMatrix type="matrix" values="0 0 0 0 0 0 0 0 0 0 0 0 0 0 0 0 0 0 0.25 0"/>
<feBlend mode="normal" in2="BackgroundImageFix" result="effect1_dropShadow_22_3"/>
<feBlend mode="normal" in="SourceGraphic" in2="effect1_dropShadow_22_3" result="shape"/>
</filter>
<filter id="filter1_d_22_3" x="145.099" y="164.754" width="508.023" height="208.644" filterUnits="userSpaceOnUse" color-interpolation-filters="sRGB">
<feFlood flood-opacity="0" result="BackgroundImageFix"/>
<feColorMatrix in="SourceAlpha" type="matrix" values="0 0 0 0 0 0 0 0 0 0 0 0 0 0 0 0 0 0 127 0" result="hardAlpha"/>
<feOffset dy="4"/>
<feGaussianBlur stdDeviation="2"/>
<feComposite in2="hardAlpha" operator="out"/>
<feColorMatrix type="matrix" values="0 0 0 0 0 0 0 0 0 0 0 0 0 0 0 0 0 0 0.25 0"/>
<feBlend mode="normal" in2="BackgroundImageFix" result="effect1_dropShadow_22_3"/>
<feBlend mode="normal" in="SourceGraphic" in2="effect1_dropShadow_22_3" result="shape"/>
</filter>
<filter id="filter2_d_22_3" x="144.097" y="476.754" width="508.023" height="208.644" filterUnits="userSpaceOnUse" color-interpolation-filters="sRGB">
<feFlood flood-opacity="0" result="BackgroundImageFix"/>
<feColorMatrix in="SourceAlpha" type="matrix" values="0 0 0 0 0 0 0 0 0 0 0 0 0 0 0 0 0 0 127 0" result="hardAlpha"/>
<feOffset dy="4"/>
<feGaussianBlur stdDeviation="2"/>
<feComposite in2="hardAlpha" operator="out"/>
<feColorMatrix type="matrix" values="0 0 0 0 0 0 0 0 0 0 0 0 0 0 0 0 0 0 0.25 0"/>
<feBlend mode="normal" in2="BackgroundImageFix" result="effect1_dropShadow_22_3"/>
<feBlend mode="normal" in="SourceGraphic" in2="effect1_dropShadow_22_3" result="shape"/>
</filter>
</defs>
</svg>
