<svg width="210" height="508" viewBox="0 0 210 508" fill="none" xmlns="http://www.w3.org/2000/svg">
<g filter="url(#filter0_d_15_3)">
<path d="M180.996 0.0507812V24.3672C155.41 24.3672 136.367 30.2266 123.867 41.9453C111.562 53.6641 105.41 71.4375 105.41 95.2656C105.41 104.445 106.484 112.258 108.633 118.703L116.836 143.898C119.766 152.883 121.23 161.477 121.23 169.68C121.23 202.492 97.6953 222.805 50.625 230.617V232.961C59.4141 234.133 67.0312 235.695 73.4766 237.648C116.055 228.859 137.344 208.938 137.344 177.883C137.344 169.484 135.879 160.891 132.949 152.102L124.746 126.906C122.598 120.461 121.523 112.648 121.523 103.469C121.523 79.4453 127.676 61.6719 139.98 50.1484C152.48 38.4297 171.523 32.5703 197.109 32.5703V8.25391L205.02 12.0625V36.3789C179.434 36.3789 160.391 42.2383 147.891 53.957C135.586 65.6758 129.434 83.5469 129.434 107.57C129.434 116.945 130.508 124.758 132.656 131.008L140.859 156.203C143.789 164.797 145.254 172.805 145.254 180.227C145.254 210.5 122.988 230.227 78.457 239.406C107.949 250.734 122.695 270.754 122.695 299.465C122.695 307.473 121.328 316.457 118.594 326.418L110.977 354.543C108.242 364.113 106.875 373.781 106.875 383.547C106.875 420.852 119.863 443.605 145.84 451.809C130.605 439.113 122.988 419.094 122.988 391.75C122.988 381.984 124.355 372.316 127.09 362.746L134.707 334.621C137.441 324.66 138.809 315.773 138.809 307.961C138.809 286.086 130.215 268.996 113.027 256.691C125.137 263.723 133.73 271.535 138.809 280.129C144.082 288.723 146.719 299.367 146.719 312.062C146.719 319.875 145.352 328.762 142.617 338.723L135 366.848C132.266 376.418 130.898 385.988 130.898 395.559C130.898 421.34 138.027 440.676 152.285 453.566C161.27 455.129 170.84 455.91 180.996 455.91V479.934C172.598 479.152 160.293 478.762 144.082 478.762C107.168 478.762 81.6797 471.926 67.6172 458.254C50.625 441.848 42.1289 417.629 42.1289 385.598C42.1289 372.316 46.4258 349.27 55.0195 316.457C58.3398 303.762 60 292.824 60 283.645C60 276.809 57.7539 269.484 53.2617 261.672C44.8633 260.695 37.7344 260.207 31.875 260.207C29.3359 260.207 25.0391 260.402 18.9844 260.793L14.8828 253.469C21.5234 252.883 27.1875 252.59 31.875 252.59C34.4141 252.59 39.1016 252.98 45.9375 253.762C37.1484 247.316 23.4766 243.703 4.92188 242.922V220.949C41.4453 218.605 59.707 204.934 59.707 179.934C59.707 172.902 58.1445 164.406 55.0195 154.445C46.2305 125.93 41.8359 105.715 41.8359 93.8008C41.8359 59.8164 51.5039 34.5234 70.8398 17.9219C84.1211 6.59375 108.828 0.929688 144.961 0.929688C162.734 0.929688 174.746 0.636719 180.996 0.0507812ZM205.02 469.973V499.855C156.387 499.855 115.762 495.852 83.1445 487.844V486.379C111.27 490.09 141.641 491.945 174.258 491.945L191.836 492.238H197.109V462.941L205.02 469.973Z" fill="#700BBF" fill-opacity="0.7" shape-rendering="crispEdges"/>
</g>
<defs>
<filter id="filter0_d_15_3" x="0.921875" y="0.0507812" width="208.098" height="507.805" filterUnits="userSpaceOnUse" color-interpolation-filters="sRGB">
<feFlood flood-opacity="0" result="BackgroundImageFix"/>
<feColorMatrix in="SourceAlpha" type="matrix" values="0 0 0 0 0 0 0 0 0 0 0 0 0 0 0 0 0 0 127 0" result="hardAlpha"/>
<feOffset dy="4"/>
<feGaussianBlur stdDeviation="2"/>
<feComposite in2="hardAlpha" operator="out"/>
<feColorMatrix type="matrix" values="0 0 0 0 0 0 0 0 0 0 0 0 0 0 0 0 0 0 0.25 0"/>
<feBlend mode="normal" in2="BackgroundImageFix" result="effect1_dropShadow_15_3"/>
<feBlend mode="normal" in="SourceGraphic" in2="effect1_dropShadow_15_3" result="shape"/>
</filter>
</defs>
</svg>
