<svg width="634" height="920" viewBox="0 0 634 920" fill="none" xmlns="http://www.w3.org/2000/svg">
<g filter="url(#filter0_d_15_5)">
<path d="M195.996 147.051V171.367C170.41 171.367 151.367 177.227 138.867 188.945C126.562 200.664 120.41 218.438 120.41 242.266C120.41 251.445 121.484 259.258 123.633 265.703L131.836 290.898C134.766 299.883 136.23 308.477 136.23 316.68C136.23 349.492 112.695 369.805 65.625 377.617V379.961C74.4141 381.133 82.0312 382.695 88.4766 384.648C131.055 375.859 152.344 355.938 152.344 324.883C152.344 316.484 150.879 307.891 147.949 299.102L139.746 273.906C137.598 267.461 136.523 259.648 136.523 250.469C136.523 226.445 142.676 208.672 154.98 197.148C167.48 185.43 186.523 179.57 212.109 179.57V155.254L220.02 159.062V183.379C194.434 183.379 175.391 189.238 162.891 200.957C150.586 212.676 144.434 230.547 144.434 254.57C144.434 263.945 145.508 271.758 147.656 278.008L155.859 303.203C158.789 311.797 160.254 319.805 160.254 327.227C160.254 357.5 137.988 377.227 93.457 386.406C122.949 397.734 137.695 417.754 137.695 446.465C137.695 454.473 136.328 463.457 133.594 473.418L125.977 501.543C123.242 511.113 121.875 520.781 121.875 530.547C121.875 567.852 134.863 590.605 160.84 598.809C145.605 586.113 137.988 566.094 137.988 538.75C137.988 528.984 139.355 519.316 142.09 509.746L149.707 481.621C152.441 471.66 153.809 462.773 153.809 454.961C153.809 433.086 145.215 415.996 128.027 403.691C140.137 410.723 148.73 418.535 153.809 427.129C159.082 435.723 161.719 446.367 161.719 459.062C161.719 466.875 160.352 475.762 157.617 485.723L150 513.848C147.266 523.418 145.898 532.988 145.898 542.559C145.898 568.34 153.027 587.676 167.285 600.566C176.27 602.129 185.84 602.91 195.996 602.91V626.934C187.598 626.152 175.293 625.762 159.082 625.762C122.168 625.762 96.6797 618.926 82.6172 605.254C65.625 588.848 57.1289 564.629 57.1289 532.598C57.1289 519.316 61.4258 496.27 70.0195 463.457C73.3398 450.762 75 439.824 75 430.645C75 423.809 72.7539 416.484 68.2617 408.672C59.8633 407.695 52.7344 407.207 46.875 407.207C44.3359 407.207 40.0391 407.402 33.9844 407.793L29.8828 400.469C36.5234 399.883 42.1875 399.59 46.875 399.59C49.4141 399.59 54.1016 399.98 60.9375 400.762C52.1484 394.316 38.4766 390.703 19.9219 389.922V367.949C56.4453 365.605 74.707 351.934 74.707 326.934C74.707 319.902 73.1445 311.406 70.0195 301.445C61.2305 272.93 56.8359 252.715 56.8359 240.801C56.8359 206.816 66.5039 181.523 85.8398 164.922C99.1211 153.594 123.828 147.93 159.961 147.93C177.734 147.93 189.746 147.637 195.996 147.051ZM220.02 616.973V646.855C171.387 646.855 130.762 642.852 98.1445 634.844V633.379C126.27 637.09 156.641 638.945 189.258 638.945L206.836 639.238H212.109V609.941L220.02 616.973Z" fill="#700BBF" fill-opacity="0.7" shape-rendering="crispEdges"/>
</g>
<g filter="url(#filter1_d_15_5)">
<path d="M374.535 493.898V515.578C354.613 516.555 340.258 520.363 331.469 527.004C322.68 533.645 318.285 543.801 318.285 557.473C318.285 565.48 319.945 575.832 323.266 588.527C332.055 621.145 336.449 644.094 336.449 657.375C336.449 689.211 327.758 713.234 310.375 729.445C295.922 742.922 270.043 749.66 232.738 749.66L194.945 750.832V726.809C221.312 726.809 240.453 721.145 252.367 709.816C264.477 698.488 270.531 680.324 270.531 655.324C270.531 645.754 269.164 636.086 266.43 626.32L258.52 598.781C255.785 588.625 254.418 579.641 254.418 571.828C254.418 543.508 269.262 523.684 298.949 512.355C290.355 508.254 282.543 502.59 275.512 495.363C287.621 501.809 298.559 506.301 308.324 508.84C313.988 507.668 320.531 506.691 327.953 505.91V503.566C279.906 495.754 255.883 475.637 255.883 443.215C255.883 435.012 257.348 426.516 260.277 417.727L268.773 392.824C270.922 386.379 271.996 378.273 271.996 368.508C271.996 356.984 268.969 344.387 262.914 330.715C251.586 321.73 233.715 317.238 209.301 317.238L205.199 309.328C226.879 309.328 243.969 312.941 256.469 320.168C245.141 306.105 224.633 299.074 194.945 299.074V275.051C206.469 275.637 218.676 275.93 231.566 275.93C268.285 275.93 293.48 281.594 307.152 292.922C326.879 309.133 336.742 334.133 336.742 367.922C336.742 379.836 332.25 399.953 323.266 428.273C320.141 438.039 318.578 446.438 318.578 453.469C318.578 478.078 337.23 491.555 374.535 493.898ZM201.098 766.945L245.043 765.773C282.348 765.773 308.227 759.035 322.68 745.559C340.062 729.348 348.754 705.324 348.754 673.488C348.754 660.402 344.359 637.453 335.57 604.641C332.25 592.141 330.59 581.789 330.59 573.586C330.59 559.914 334.984 549.758 343.773 543.117C352.562 536.477 366.918 532.668 386.84 531.691V505.324L395.043 513.234V539.895C375.121 540.871 360.766 544.68 351.977 551.32C343.188 557.766 338.793 567.922 338.793 581.789C338.793 589.992 340.453 600.344 343.773 612.844C352.562 645.656 356.957 668.605 356.957 681.691C356.957 713.332 348.266 737.258 330.883 753.469C316.43 767.141 290.551 773.977 253.246 773.977L220.141 774.562L209.301 774.855L201.098 766.945ZM345.238 485.402C335.668 477.395 330.883 469.289 330.883 461.086C330.883 454.055 332.445 445.754 335.57 436.184C344.555 408.84 349.047 388.137 349.047 374.074C349.047 355.129 342.113 333.84 328.246 310.207C347.582 327.98 357.25 352.492 357.25 383.742C357.25 398.781 352.758 418.996 343.773 444.387C340.648 453.176 339.086 460.207 339.086 465.48C339.086 469.973 341.137 476.613 345.238 485.402Z" fill="#700BBF" fill-opacity="0.7" shape-rendering="crispEdges"/>
</g>
<defs>
<filter id="filter0_d_15_5" x="15.9219" y="147.051" width="208.098" height="507.805" filterUnits="userSpaceOnUse" color-interpolation-filters="sRGB">
<feFlood flood-opacity="0" result="BackgroundImageFix"/>
<feColorMatrix in="SourceAlpha" type="matrix" values="0 0 0 0 0 0 0 0 0 0 0 0 0 0 0 0 0 0 127 0" result="hardAlpha"/>
<feOffset dy="4"/>
<feGaussianBlur stdDeviation="2"/>
<feComposite in2="hardAlpha" operator="out"/>
<feColorMatrix type="matrix" values="0 0 0 0 0 0 0 0 0 0 0 0 0 0 0 0 0 0 0.25 0"/>
<feBlend mode="normal" in2="BackgroundImageFix" result="effect1_dropShadow_15_5"/>
<feBlend mode="normal" in="SourceGraphic" in2="effect1_dropShadow_15_5" result="shape"/>
</filter>
<filter id="filter1_d_15_5" x="190.945" y="275.051" width="208.098" height="507.805" filterUnits="userSpaceOnUse" color-interpolation-filters="sRGB">
<feFlood flood-opacity="0" result="BackgroundImageFix"/>
<feColorMatrix in="SourceAlpha" type="matrix" values="0 0 0 0 0 0 0 0 0 0 0 0 0 0 0 0 0 0 127 0" result="hardAlpha"/>
<feOffset dy="4"/>
<feGaussianBlur stdDeviation="2"/>
<feComposite in2="hardAlpha" operator="out"/>
<feColorMatrix type="matrix" values="0 0 0 0 0 0 0 0 0 0 0 0 0 0 0 0 0 0 0.25 0"/>
<feBlend mode="normal" in2="BackgroundImageFix" result="effect1_dropShadow_15_5"/>
<feBlend mode="normal" in="SourceGraphic" in2="effect1_dropShadow_15_5" result="shape"/>
</filter>
</defs>
</svg>
