<svg width="210" height="508" viewBox="0 0 210 508" fill="none" xmlns="http://www.w3.org/2000/svg">
<g filter="url(#filter0_d_15_4)">
<path d="M184.535 218.898V240.578C164.613 241.555 150.258 245.363 141.469 252.004C132.68 258.645 128.285 268.801 128.285 282.473C128.285 290.48 129.945 300.832 133.266 313.527C142.055 346.145 146.449 369.094 146.449 382.375C146.449 414.211 137.758 438.234 120.375 454.445C105.922 467.922 80.043 474.66 42.7383 474.66L4.94531 475.832V451.809C31.3125 451.809 50.4531 446.145 62.3672 434.816C74.4766 423.488 80.5312 405.324 80.5312 380.324C80.5312 370.754 79.1641 361.086 76.4297 351.32L68.5195 323.781C65.7852 313.625 64.418 304.641 64.418 296.828C64.418 268.508 79.2617 248.684 108.949 237.355C100.355 233.254 92.543 227.59 85.5117 220.363C97.6211 226.809 108.559 231.301 118.324 233.84C123.988 232.668 130.531 231.691 137.953 230.91V228.566C89.9062 220.754 65.8828 200.637 65.8828 168.215C65.8828 160.012 67.3477 151.516 70.2773 142.727L78.7734 117.824C80.9219 111.379 81.9961 103.273 81.9961 93.5078C81.9961 81.9844 78.9688 69.3867 72.9141 55.7148C61.5859 46.7305 43.7148 42.2383 19.3008 42.2383L15.1992 34.3281C36.8789 34.3281 53.9688 37.9414 66.4688 45.168C55.1406 31.1055 34.6328 24.0742 4.94531 24.0742V0.0507812C16.4688 0.636719 28.6758 0.929688 41.5664 0.929688C78.2852 0.929688 103.48 6.59375 117.152 17.9219C136.879 34.1328 146.742 59.1328 146.742 92.9219C146.742 104.836 142.25 124.953 133.266 153.273C130.141 163.039 128.578 171.438 128.578 178.469C128.578 203.078 147.23 216.555 184.535 218.898ZM11.0977 491.945L55.043 490.773C92.3477 490.773 118.227 484.035 132.68 470.559C150.062 454.348 158.754 430.324 158.754 398.488C158.754 385.402 154.359 362.453 145.57 329.641C142.25 317.141 140.59 306.789 140.59 298.586C140.59 284.914 144.984 274.758 153.773 268.117C162.562 261.477 176.918 257.668 196.84 256.691V230.324L205.043 238.234V264.895C185.121 265.871 170.766 269.68 161.977 276.32C153.188 282.766 148.793 292.922 148.793 306.789C148.793 314.992 150.453 325.344 153.773 337.844C162.562 370.656 166.957 393.605 166.957 406.691C166.957 438.332 158.266 462.258 140.883 478.469C126.43 492.141 100.551 498.977 63.2461 498.977L30.1406 499.562L19.3008 499.855L11.0977 491.945ZM155.238 210.402C145.668 202.395 140.883 194.289 140.883 186.086C140.883 179.055 142.445 170.754 145.57 161.184C154.555 133.84 159.047 113.137 159.047 99.0742C159.047 80.1289 152.113 58.8398 138.246 35.207C157.582 52.9805 167.25 77.4922 167.25 108.742C167.25 123.781 162.758 143.996 153.773 169.387C150.648 178.176 149.086 185.207 149.086 190.48C149.086 194.973 151.137 201.613 155.238 210.402Z" fill="#700BBF" fill-opacity="0.7" shape-rendering="crispEdges"/>
</g>
<defs>
<filter id="filter0_d_15_4" x="0.945312" y="0.0507812" width="208.098" height="507.805" filterUnits="userSpaceOnUse" color-interpolation-filters="sRGB">
<feFlood flood-opacity="0" result="BackgroundImageFix"/>
<feColorMatrix in="SourceAlpha" type="matrix" values="0 0 0 0 0 0 0 0 0 0 0 0 0 0 0 0 0 0 127 0" result="hardAlpha"/>
<feOffset dy="4"/>
<feGaussianBlur stdDeviation="2"/>
<feComposite in2="hardAlpha" operator="out"/>
<feColorMatrix type="matrix" values="0 0 0 0 0 0 0 0 0 0 0 0 0 0 0 0 0 0 0.25 0"/>
<feBlend mode="normal" in2="BackgroundImageFix" result="effect1_dropShadow_15_4"/>
<feBlend mode="normal" in="SourceGraphic" in2="effect1_dropShadow_15_4" result="shape"/>
</filter>
</defs>
</svg>
